<svg viewBox="0 0 32 32" xmlns="http://www.w3.org/2000/svg" xmlns:xlink="http://www.w3.org/1999/xlink">
  <g stroke="none" stroke-width="4" fill="none" fill-rule="evenodd">
  <path 
    d="M19.992 23.9935021h1v-1h-1v1zm-.5 1h2c.276999999999997.0.5-.224.5-.5v-2c0-.277000000000001-.223000000000003-.5-.5-.5h-2c-.276.0-.5.222999999999999-.5.5v2c0 .276.224.5.5.5zm5.5-1h1v-1h-1v1zm-.5 1h2c.276999999999997.0.5-.224.5-.5v-2c0-.277000000000001-.223000000000003-.5-.5-.5h-2c-.276.0-.5.222999999999999-.5.5v2c0 .276.224.5.5.5zm-4.5-6h1v-1h-1v1zm-.5 1h2c.276999999999997.0.5-.224.5-.5v-2c0-.277000000000001-.223000000000003-.5-.5-.5h-2c-.276.0-.5.222999999999999-.5.5v2c0 .276.224.5.5.5zm5.5-1h1v-1h-1v1zm-.5 1h2c.276999999999997.0.5-.224.5-.5v-2c0-.277000000000001-.223000000000003-.5-.5-.5h-2c-.276.0-.5.222999999999999-.5.5v2c0 .276.224.5.5.5zm-7.5 9h12v-14h-12v14zM13.995 28.4165021 3 22.6805021V8.27950205l9-4.935v4.52L7.254 10.5485021C7.097 10.6365021 7 10.8035021 7 10.9835021v9C7 20.1655021 7.1 20.3335021 7.259 20.4215021l6.5 3.578C13.909 24.0825021 14.092 24.0825021 14.24 24.0005021l1.752-.962v4.288l-1.997 1.09zm7.718-17.885L16 7.83950205v-4.531l10 4.984V13.9935021H22v-3.01C22 10.7905021 21.889 10.6135021 21.713 10.5315021zm7.779 3.462H27V7.98350205C27 7.79350205 26.893 7.62050205 26.723 7.53650205l-11-5.484C15.568 1.97550205 15.384 1.98350205 15.237 2.07450205c-.147.0920000000000001-.237.252-.237.426v5.656c0 .193.111000000000001.369.287000000000001.452L21 11.3005021v2.693H16.492c-.276.0-.5.222999999999999-.5.5v2.811l-1.528-1.92 3.253-4.078H16.272l-2.869 3.371v-3.371H12.117v8.361h1.286v-3.859l2.589 3.281v2.807l-1.992 1.094-6-3.302v-8.414l4.746-2.68300005C12.903 8.50250205 13 8.33650205 13 8.15650205v-5.656c0-.177-.093-.341-.244999999999999-.431C12.604 1.97950205 12.415 1.97750205 12.26 2.06150205l-10 5.483c-.16.0880000000000001-.26.256-.26.439V22.9835021C2 23.1695021 2.104 23.3405021 2.269 23.4265021l11.5 6C13.841 29.4645021 13.921 29.4835021 14 29.4835021 14.082 29.4835021 14.165 29.4625021 14.239 29.4225021L15.992 28.4655021v1.028c0 .276.224.5.5.5h13c.276999999999997.0.5-.224.5-.5v-15c0-.277000000000001-.223000000000003-.5-.5-.5z" 
    id="Fill-4" 
    fill="#ec7211">
  </path>
  </g>
</svg>